<svg xmlns="http://www.w3.org/2000/svg" xmlns:xlink="http://www.w3.org/1999/xlink" version="1.1" class="marks" width="752" height="486" viewBox="0 0 752 486"><rect width="752" height="486" fill="white"/><g fill="none" stroke-miterlimit="10" transform="translate(73,28)"><g class="mark-group role-frame root" role="graphics-object" aria-roledescription="group mark container"><g transform="translate(0,0)"><path class="background" aria-hidden="true" d="M0,0h0v0h0Z"/><g><g class="mark-group role-row-header row_header" role="graphics-object" aria-roledescription="group mark container"><g transform="translate(-39,0)"><path class="background" aria-hidden="true" d="M0,0h0v160h0Z"/><g><g class="mark-group role-title"><g transform="translate(-28,80)"><path class="background" aria-hidden="true" d="M0,0h0v0h0Z" pointer-events="none"/><g><g class="mark-text role-title-text" role="graphics-symbol" aria-roledescription="title" aria-label="Title text 'count'" pointer-events="none"><text text-anchor="middle" transform="translate(0,0) rotate(-90) translate(0,14)" font-family="sans-serif" font-size="18px" font-style="bold" fill="#000" opacity="1">count</text></g></g><path class="foreground" aria-hidden="true" d="" pointer-events="none" display="none"/></g></g></g><path class="foreground" aria-hidden="true" d="" display="none"/></g><g transform="translate(-39,200)"><path class="background" aria-hidden="true" d="M0,0h0v160h0Z"/><g><g class="mark-group role-title"><g transform="translate(-28.000000000000007,80)"><path class="background" aria-hidden="true" d="M0,0h0v0h0Z" pointer-events="none"/><g><g class="mark-text role-title-text" role="graphics-symbol" aria-roledescription="title" aria-label="Title text 'fraction'" pointer-events="none"><text text-anchor="middle" transform="translate(0,0) rotate(-90) translate(0,14)" font-family="sans-serif" font-size="18px" font-style="bold" fill="#000" opacity="1">fraction</text></g></g><path class="foreground" aria-hidden="true" d="" pointer-events="none" display="none"/></g></g></g><path class="foreground" aria-hidden="true" d="" display="none"/></g></g><g class="mark-group role-column-footer column_footer" role="graphics-object" aria-roledescription="group mark container"><g transform="translate(0,370)"><path class="background" aria-hidden="true" d="M0,0h450v0h-450Z"/><g><g class="mark-group role-axis" role="graphics-symbol" aria-roledescription="axis" aria-label="X-axis for a time scale with values from October-2024 to January-2026"><g transform="translate(0.5,0.5)"><path class="background" aria-hidden="true" d="M0,0h0v0h0Z" pointer-events="none"/><g><g class="mark-rule role-axis-tick" pointer-events="none"><line transform="translate(1,0)" x2="0" y2="0" stroke="#888" stroke-width="1" opacity="1"/><line transform="translate(8,0)" x2="0" y2="0" stroke="#888" stroke-width="1" opacity="1"/><line transform="translate(14,0)" x2="0" y2="0" stroke="#888" stroke-width="1" opacity="1"/><line transform="translate(21,0)" x2="0" y2="0" stroke="#888" stroke-width="1" opacity="1"/><line transform="translate(28,0)" x2="0" y2="0" stroke="#888" stroke-width="1" opacity="1"/><line transform="translate(35,0)" x2="0" y2="0" stroke="#888" stroke-width="1" opacity="1"/><line transform="translate(41,0)" x2="0" y2="0" stroke="#888" stroke-width="1" opacity="1"/><line transform="translate(48,0)" x2="0" y2="0" stroke="#888" stroke-width="1" opacity="1"/><line transform="translate(55,0)" x2="0" y2="0" stroke="#888" stroke-width="1" opacity="1"/><line transform="translate(62,0)" x2="0" y2="0" stroke="#888" stroke-width="1" opacity="1"/><line transform="translate(68,0)" x2="0" y2="0" stroke="#888" stroke-width="1" opacity="1"/><line transform="translate(75,0)" x2="0" y2="0" stroke="#888" stroke-width="1" opacity="1"/><line transform="translate(82,0)" x2="0" y2="0" stroke="#888" stroke-width="1" opacity="1"/><line transform="translate(89,0)" x2="0" y2="0" stroke="#888" stroke-width="1" opacity="1"/><line transform="translate(95,0)" x2="0" y2="0" stroke="#888" stroke-width="1" opacity="1"/><line transform="translate(102,0)" x2="0" y2="0" stroke="#888" stroke-width="1" opacity="1"/><line transform="translate(109,0)" x2="0" y2="0" stroke="#888" stroke-width="1" opacity="1"/><line transform="translate(116,0)" x2="0" y2="0" stroke="#888" stroke-width="1" opacity="1"/><line transform="translate(122,0)" x2="0" y2="0" stroke="#888" stroke-width="1" opacity="1"/><line transform="translate(129,0)" x2="0" y2="0" stroke="#888" stroke-width="1" opacity="1"/><line transform="translate(136,0)" x2="0" y2="0" stroke="#888" stroke-width="1" opacity="1"/><line transform="translate(143,0)" x2="0" y2="0" stroke="#888" stroke-width="1" opacity="1"/><line transform="translate(149,0)" x2="0" y2="0" stroke="#888" stroke-width="1" opacity="1"/><line transform="translate(156,0)" x2="0" y2="0" stroke="#888" stroke-width="1" opacity="1"/><line transform="translate(163,0)" x2="0" y2="0" stroke="#888" stroke-width="1" opacity="1"/><line transform="translate(170,0)" x2="0" y2="0" stroke="#888" stroke-width="1" opacity="1"/><line transform="translate(176,0)" x2="0" y2="0" stroke="#888" stroke-width="1" opacity="1"/><line transform="translate(183,0)" x2="0" y2="0" stroke="#888" stroke-width="1" opacity="1"/><line transform="translate(190,0)" x2="0" y2="0" stroke="#888" stroke-width="1" opacity="1"/><line transform="translate(197,0)" x2="0" y2="0" stroke="#888" stroke-width="1" opacity="1"/><line transform="translate(203,0)" x2="0" y2="0" stroke="#888" stroke-width="1" opacity="1"/><line transform="translate(210,0)" x2="0" y2="0" stroke="#888" stroke-width="1" opacity="1"/><line transform="translate(217,0)" x2="0" y2="0" stroke="#888" stroke-width="1" opacity="1"/><line transform="translate(224,0)" x2="0" y2="0" stroke="#888" stroke-width="1" opacity="1"/><line transform="translate(230,0)" x2="0" y2="0" stroke="#888" stroke-width="1" opacity="1"/><line transform="translate(237,0)" x2="0" y2="0" stroke="#888" stroke-width="1" opacity="1"/><line transform="translate(244,0)" x2="0" y2="0" stroke="#888" stroke-width="1" opacity="1"/><line transform="translate(251,0)" x2="0" y2="0" stroke="#888" stroke-width="1" opacity="1"/><line transform="translate(257,0)" x2="0" y2="0" stroke="#888" stroke-width="1" opacity="1"/><line transform="translate(264,0)" x2="0" y2="0" stroke="#888" stroke-width="1" opacity="1"/><line transform="translate(271,0)" x2="0" y2="0" stroke="#888" stroke-width="1" opacity="1"/><line transform="translate(277,0)" x2="0" y2="0" stroke="#888" stroke-width="1" opacity="1"/><line transform="translate(284,0)" x2="0" y2="0" stroke="#888" stroke-width="1" opacity="1"/><line transform="translate(291,0)" x2="0" y2="0" stroke="#888" stroke-width="1" opacity="1"/><line transform="translate(298,0)" x2="0" y2="0" stroke="#888" stroke-width="1" opacity="1"/><line transform="translate(304,0)" x2="0" y2="0" stroke="#888" stroke-width="1" opacity="1"/><line transform="translate(311,0)" x2="0" y2="0" stroke="#888" stroke-width="1" opacity="1"/><line transform="translate(318,0)" x2="0" y2="0" stroke="#888" stroke-width="1" opacity="1"/><line transform="translate(325,0)" x2="0" y2="0" stroke="#888" stroke-width="1" opacity="1"/><line transform="translate(331,0)" x2="0" y2="0" stroke="#888" stroke-width="1" opacity="1"/><line transform="translate(338,0)" x2="0" y2="0" stroke="#888" stroke-width="1" opacity="1"/><line transform="translate(345,0)" x2="0" y2="0" stroke="#888" stroke-width="1" opacity="1"/><line transform="translate(352,0)" x2="0" y2="0" stroke="#888" stroke-width="1" opacity="1"/><line transform="translate(358,0)" x2="0" y2="0" stroke="#888" stroke-width="1" opacity="1"/><line transform="translate(365,0)" x2="0" y2="0" stroke="#888" stroke-width="1" opacity="1"/><line transform="translate(372,0)" x2="0" y2="0" stroke="#888" stroke-width="1" opacity="1"/><line transform="translate(379,0)" x2="0" y2="0" stroke="#888" stroke-width="1" opacity="1"/><line transform="translate(385,0)" x2="0" y2="0" stroke="#888" stroke-width="1" opacity="1"/><line transform="translate(392,0)" x2="0" y2="0" stroke="#888" stroke-width="1" opacity="1"/><line transform="translate(399,0)" x2="0" y2="0" stroke="#888" stroke-width="1" opacity="1"/><line transform="translate(406,0)" x2="0" y2="0" stroke="#888" stroke-width="1" opacity="1"/><line transform="translate(412,0)" x2="0" y2="0" stroke="#888" stroke-width="1" opacity="1"/><line transform="translate(419,0)" x2="0" y2="0" stroke="#888" stroke-width="1" opacity="1"/><line transform="translate(426,0)" x2="0" y2="0" stroke="#888" stroke-width="1" opacity="1"/><line transform="translate(433,0)" x2="0" y2="0" stroke="#888" stroke-width="1" opacity="1"/><line transform="translate(439,0)" x2="0" y2="0" stroke="#888" stroke-width="1" opacity="1"/><line transform="translate(446,0)" x2="0" y2="0" stroke="#888" stroke-width="1" opacity="1"/></g><g class="mark-text role-axis-label" pointer-events="none"><text text-anchor="end" transform="translate(0.963511464002141,2) rotate(270) translate(0,5)" font-family="sans-serif" font-size="18px" fill="#000" opacity="1">Oct-2024</text><text text-anchor="end" transform="translate(7.708091712017128,2) rotate(270) translate(0,5)" font-family="sans-serif" font-size="18px" fill="#000" opacity="0">Oct-2024</text><text text-anchor="end" transform="translate(14.452671960032118,2) rotate(270) translate(0,5)" font-family="sans-serif" font-size="18px" fill="#000" opacity="0">Oct-2024</text><text text-anchor="end" transform="translate(21.197252208047104,2) rotate(270) translate(0,5)" font-family="sans-serif" font-size="18px" fill="#000" opacity="0">Oct-2024</text><text text-anchor="end" transform="translate(27.94183245606209,2) rotate(270) translate(0,5)" font-family="sans-serif" font-size="18px" fill="#000" opacity="1">Nov-2024</text><text text-anchor="end" transform="translate(34.72655901507717,2) rotate(270) translate(0,5)" font-family="sans-serif" font-size="18px" fill="#000" opacity="0">Nov-2024</text><text text-anchor="end" transform="translate(41.47113926309216,2) rotate(270) translate(0,5)" font-family="sans-serif" font-size="18px" fill="#000" opacity="0">Nov-2024</text><text text-anchor="end" transform="translate(48.215719511107146,2) rotate(270) translate(0,5)" font-family="sans-serif" font-size="18px" fill="#000" opacity="0">Nov-2024</text><text text-anchor="end" transform="translate(54.96029975912214,2) rotate(270) translate(0,5)" font-family="sans-serif" font-size="18px" fill="#000" opacity="1">Dec-2024</text><text text-anchor="end" transform="translate(61.70488000713712,2) rotate(270) translate(0,5)" font-family="sans-serif" font-size="18px" fill="#000" opacity="0">Dec-2024</text><text text-anchor="end" transform="translate(68.4494602551521,2) rotate(270) translate(0,5)" font-family="sans-serif" font-size="18px" fill="#000" opacity="0">Dec-2024</text><text text-anchor="end" transform="translate(75.1940405031671,2) rotate(270) translate(0,5)" font-family="sans-serif" font-size="18px" fill="#000" opacity="0">Dec-2024</text><text text-anchor="end" transform="translate(81.93862075118209,2) rotate(270) translate(0,5)" font-family="sans-serif" font-size="18px" fill="#000" opacity="1">Dec-2024</text><text text-anchor="end" transform="translate(88.68320099919707,2) rotate(270) translate(0,5)" font-family="sans-serif" font-size="18px" fill="#000" opacity="0">Jan-2025</text><text text-anchor="end" transform="translate(95.42778124721205,2) rotate(270) translate(0,5)" font-family="sans-serif" font-size="18px" fill="#000" opacity="0">Jan-2025</text><text text-anchor="end" transform="translate(102.17236149522705,2) rotate(270) translate(0,5)" font-family="sans-serif" font-size="18px" fill="#000" opacity="0">Jan-2025</text><text text-anchor="end" transform="translate(108.91694174324203,2) rotate(270) translate(0,5)" font-family="sans-serif" font-size="18px" fill="#000" opacity="1">Jan-2025</text><text text-anchor="end" transform="translate(115.66152199125702,2) rotate(270) translate(0,5)" font-family="sans-serif" font-size="18px" fill="#000" opacity="0">Feb-2025</text><text text-anchor="end" transform="translate(122.40610223927202,2) rotate(270) translate(0,5)" font-family="sans-serif" font-size="18px" fill="#000" opacity="0">Feb-2025</text><text text-anchor="end" transform="translate(129.15068248728699,2) rotate(270) translate(0,5)" font-family="sans-serif" font-size="18px" fill="#000" opacity="0">Feb-2025</text><text text-anchor="end" transform="translate(135.89526273530197,2) rotate(270) translate(0,5)" font-family="sans-serif" font-size="18px" fill="#000" opacity="1">Feb-2025</text><text text-anchor="end" transform="translate(142.63984298331698,2) rotate(270) translate(0,5)" font-family="sans-serif" font-size="18px" fill="#000" opacity="0">Mar-2025</text><text text-anchor="end" transform="translate(149.38442323133197,2) rotate(270) translate(0,5)" font-family="sans-serif" font-size="18px" fill="#000" opacity="0">Mar-2025</text><text text-anchor="end" transform="translate(156.08885716834686,2) rotate(270) translate(0,5)" font-family="sans-serif" font-size="18px" fill="#000" opacity="0">Mar-2025</text><text text-anchor="end" transform="translate(162.83343741636187,2) rotate(270) translate(0,5)" font-family="sans-serif" font-size="18px" fill="#000" opacity="1">Mar-2025</text><text text-anchor="end" transform="translate(169.57801766437683,2) rotate(270) translate(0,5)" font-family="sans-serif" font-size="18px" fill="#000" opacity="0">Mar-2025</text><text text-anchor="end" transform="translate(176.3225979123918,2) rotate(270) translate(0,5)" font-family="sans-serif" font-size="18px" fill="#000" opacity="0">Apr-2025</text><text text-anchor="end" transform="translate(183.06717816040683,2) rotate(270) translate(0,5)" font-family="sans-serif" font-size="18px" fill="#000" opacity="0">Apr-2025</text><text text-anchor="end" transform="translate(189.8117584084218,2) rotate(270) translate(0,5)" font-family="sans-serif" font-size="18px" fill="#000" opacity="1">Apr-2025</text><text text-anchor="end" transform="translate(196.5563386564368,2) rotate(270) translate(0,5)" font-family="sans-serif" font-size="18px" fill="#000" opacity="0">Apr-2025</text><text text-anchor="end" transform="translate(203.30091890445178,2) rotate(270) translate(0,5)" font-family="sans-serif" font-size="18px" fill="#000" opacity="0">May-2025</text><text text-anchor="end" transform="translate(210.04549915246676,2) rotate(270) translate(0,5)" font-family="sans-serif" font-size="18px" fill="#000" opacity="0">May-2025</text><text text-anchor="end" transform="translate(216.79007940048177,2) rotate(270) translate(0,5)" font-family="sans-serif" font-size="18px" fill="#000" opacity="1">May-2025</text><text text-anchor="end" transform="translate(223.53465964849673,2) rotate(270) translate(0,5)" font-family="sans-serif" font-size="18px" fill="#000" opacity="0">May-2025</text><text text-anchor="end" transform="translate(230.2792398965117,2) rotate(270) translate(0,5)" font-family="sans-serif" font-size="18px" fill="#000" opacity="0">Jun-2025</text><text text-anchor="end" transform="translate(237.02382014452672,2) rotate(270) translate(0,5)" font-family="sans-serif" font-size="18px" fill="#000" opacity="0">Jun-2025</text><text text-anchor="end" transform="translate(243.76840039254174,2) rotate(270) translate(0,5)" font-family="sans-serif" font-size="18px" fill="#000" opacity="1">Jun-2025</text><text text-anchor="end" transform="translate(250.51298064055666,2) rotate(270) translate(0,5)" font-family="sans-serif" font-size="18px" fill="#000" opacity="0">Jun-2025</text><text text-anchor="end" transform="translate(257.2575608885717,2) rotate(270) translate(0,5)" font-family="sans-serif" font-size="18px" fill="#000" opacity="0">Jun-2025</text><text text-anchor="end" transform="translate(264.00214113658666,2) rotate(270) translate(0,5)" font-family="sans-serif" font-size="18px" fill="#000" opacity="0">Jul-2025</text><text text-anchor="end" transform="translate(270.74672138460164,2) rotate(270) translate(0,5)" font-family="sans-serif" font-size="18px" fill="#000" opacity="1">Jul-2025</text><text text-anchor="end" transform="translate(277.4913016326166,2) rotate(270) translate(0,5)" font-family="sans-serif" font-size="18px" fill="#000" opacity="0">Jul-2025</text><text text-anchor="end" transform="translate(284.23588188063167,2) rotate(270) translate(0,5)" font-family="sans-serif" font-size="18px" fill="#000" opacity="0">Jul-2025</text><text text-anchor="end" transform="translate(290.98046212864665,2) rotate(270) translate(0,5)" font-family="sans-serif" font-size="18px" fill="#000" opacity="0">Aug-2025</text><text text-anchor="end" transform="translate(297.7250423766616,2) rotate(270) translate(0,5)" font-family="sans-serif" font-size="18px" fill="#000" opacity="1">Aug-2025</text><text text-anchor="end" transform="translate(304.4696226246766,2) rotate(270) translate(0,5)" font-family="sans-serif" font-size="18px" fill="#000" opacity="0">Aug-2025</text><text text-anchor="end" transform="translate(311.2142028726916,2) rotate(270) translate(0,5)" font-family="sans-serif" font-size="18px" fill="#000" opacity="0">Aug-2025</text><text text-anchor="end" transform="translate(317.9587831207066,2) rotate(270) translate(0,5)" font-family="sans-serif" font-size="18px" fill="#000" opacity="0">Aug-2025</text><text text-anchor="end" transform="translate(324.70336336872157,2) rotate(270) translate(0,5)" font-family="sans-serif" font-size="18px" fill="#000" opacity="1">Sep-2025</text><text text-anchor="end" transform="translate(331.44794361673655,2) rotate(270) translate(0,5)" font-family="sans-serif" font-size="18px" fill="#000" opacity="0">Sep-2025</text><text text-anchor="end" transform="translate(338.19252386475154,2) rotate(270) translate(0,5)" font-family="sans-serif" font-size="18px" fill="#000" opacity="0">Sep-2025</text><text text-anchor="end" transform="translate(344.9371041127665,2) rotate(270) translate(0,5)" font-family="sans-serif" font-size="18px" fill="#000" opacity="0">Sep-2025</text><text text-anchor="end" transform="translate(351.6816843607815,2) rotate(270) translate(0,5)" font-family="sans-serif" font-size="18px" fill="#000" opacity="1">Oct-2025</text><text text-anchor="end" transform="translate(358.42626460879654,2) rotate(270) translate(0,5)" font-family="sans-serif" font-size="18px" fill="#000" opacity="0">Oct-2025</text><text text-anchor="end" transform="translate(365.17084485681147,2) rotate(270) translate(0,5)" font-family="sans-serif" font-size="18px" fill="#000" opacity="0">Oct-2025</text><text text-anchor="end" transform="translate(371.91542510482645,2) rotate(270) translate(0,5)" font-family="sans-serif" font-size="18px" fill="#000" opacity="0">Oct-2025</text><text text-anchor="end" transform="translate(378.6600053528415,2) rotate(270) translate(0,5)" font-family="sans-serif" font-size="18px" fill="#000" opacity="1">Nov-2025</text><text text-anchor="end" transform="translate(385.44473191185654,2) rotate(270) translate(0,5)" font-family="sans-serif" font-size="18px" fill="#000" opacity="0">Nov-2025</text><text text-anchor="end" transform="translate(392.1893121598715,2) rotate(270) translate(0,5)" font-family="sans-serif" font-size="18px" fill="#000" opacity="0">Nov-2025</text><text text-anchor="end" transform="translate(398.9338924078865,2) rotate(270) translate(0,5)" font-family="sans-serif" font-size="18px" fill="#000" opacity="0">Nov-2025</text><text text-anchor="end" transform="translate(405.67847265590154,2) rotate(270) translate(0,5)" font-family="sans-serif" font-size="18px" fill="#000" opacity="1">Nov-2025</text><text text-anchor="end" transform="translate(412.42305290391647,2) rotate(270) translate(0,5)" font-family="sans-serif" font-size="18px" fill="#000" opacity="0">Dec-2025</text><text text-anchor="end" transform="translate(419.16763315193145,2) rotate(270) translate(0,5)" font-family="sans-serif" font-size="18px" fill="#000" opacity="0">Dec-2025</text><text text-anchor="end" transform="translate(425.9122133999465,2) rotate(270) translate(0,5)" font-family="sans-serif" font-size="18px" fill="#000" opacity="0">Dec-2025</text><text text-anchor="end" transform="translate(432.6567936479614,2) rotate(270) translate(0,5)" font-family="sans-serif" font-size="18px" fill="#000" opacity="1">Dec-2025</text><text text-anchor="end" transform="translate(439.40137389597646,2) rotate(270) translate(0,5)" font-family="sans-serif" font-size="18px" fill="#000" opacity="0">Jan-2026</text><text text-anchor="end" transform="translate(446.14595414399145,2) rotate(270) translate(0,5)" font-family="sans-serif" font-size="18px" fill="#000" opacity="0">Jan-2026</text></g><g class="mark-rule role-axis-domain" pointer-events="none"><line transform="translate(0,0)" x2="450" y2="0" stroke="#888" stroke-width="1" opacity="1"/></g></g><path class="foreground" aria-hidden="true" d="" pointer-events="none" display="none"/></g></g></g><path class="foreground" aria-hidden="true" d="" display="none"/></g></g><g class="mark-group role-scope cell" role="graphics-object" aria-roledescription="group mark container"><g transform="translate(0,0)"><path class="background" aria-hidden="true" d="M0.5,0.5h450v160h-450Z" stroke="#ddd"/><g><g class="mark-group role-axis" role="graphics-symbol" aria-roledescription="axis" aria-label="Y-axis for a linear scale with values from 0 to 297"><g transform="translate(0.5,0.5)"><path class="background" aria-hidden="true" d="M0,0h0v0h0Z" pointer-events="none"/><g><g class="mark-rule role-axis-tick" pointer-events="none"><line transform="translate(0,160)" x2="-5" y2="0" stroke="#888" stroke-width="1" opacity="1"/><line transform="translate(0,106)" x2="-5" y2="0" stroke="#888" stroke-width="1" opacity="1"/><line transform="translate(0,52)" x2="-5" y2="0" stroke="#888" stroke-width="1" opacity="1"/></g><g class="mark-text role-axis-label" pointer-events="none"><text text-anchor="end" transform="translate(-7,165)" font-family="sans-serif" font-size="18px" fill="#000" opacity="1">0</text><text text-anchor="end" transform="translate(-7,111.05009633911367)" font-family="sans-serif" font-size="18px" fill="#000" opacity="1">100</text><text text-anchor="end" transform="translate(-7,57.10019267822734)" font-family="sans-serif" font-size="18px" fill="#000" opacity="1">200</text></g><g class="mark-rule role-axis-domain" pointer-events="none"><line transform="translate(0,160)" x2="0" y2="-160" stroke="#888" stroke-width="1" opacity="1"/></g></g><path class="foreground" aria-hidden="true" d="" pointer-events="none" display="none"/></g></g><g class="mark-group role-scope child_pathgroup" role="graphics-object" aria-roledescription="group mark container"><g transform="translate(0,0)"><path class="background" aria-hidden="true" d="M0,0h450v160h-450Z"/><g><g class="mark-area role-mark child_marks" role="graphics-object" aria-roledescription="area mark container"><path aria-label="date: Oct-2024; count_or_fraction: 10.7272727273; set of strains: library strain match; set_of_strains: library strain match; statistic: count" role="graphics-symbol" aria-roledescription="area mark" d="M0,140.137L0.964,139.409L1.927,139.084L2.891,138.767L3.854,139.067L4.818,139.364L5.781,137.976L6.745,137.131L7.708,136.432L8.672,135.723L9.635,135.774L10.599,135.183L11.562,134.335L12.526,132.82L13.489,132.665L14.453,132.383L15.416,132.203L16.38,131.997L17.343,131.895L18.307,131.792L19.27,131.381L20.234,130.353L21.197,129.942L22.161,129.017L23.124,128.94L24.088,128.581L25.051,128.17L26.015,128.272L26.978,127.707L27.942,127.013L28.945,127.065L29.909,126.474L30.873,126.551L31.836,126.782L32.8,126.346L33.763,125.189L34.727,124.701L35.69,123.802L36.654,123.443L37.617,122.8L38.581,121.901L39.544,120.051L40.508,118.998L41.471,117.714L42.435,117.431L43.398,116.095L44.362,116.018L45.325,114.811L46.289,112.293L47.252,110.906L48.216,109.929L49.179,108.362L50.143,107.052L51.106,106.179L52.07,105.434L53.033,103.327L53.997,101.323L54.96,98.497L55.924,96.082L56.887,94.053L57.851,93.487L58.814,92.563L59.778,89.223L60.741,86.423L61.705,84.239L62.668,82.03L63.632,80.668L64.595,79.461L65.559,78.818L66.522,77.508L67.486,76.583L68.449,77.559L69.413,76.737L70.376,73.423L71.34,71.933L72.304,70.135L73.267,68.259L74.231,66.821L75.194,67.951L76.158,65.1L77.121,62.094L78.085,59.499L79.048,58.24L80.012,57.161L80.975,55.003L81.939,51.818L82.902,48.992L83.866,47.013L84.829,45.806L85.793,45.755L86.756,41.413L87.72,35.812L88.683,29.544L89.647,25.434L90.61,23.532L91.574,22.505L92.537,21.683L93.501,17.418L94.464,12.974L95.428,8.632L96.391,8.401L97.355,7.99L98.318,8.478L99.282,8.092L100.245,5.549L101.209,3.083L102.172,3.674L103.136,3.468L104.099,3.134L105.063,2.132L106.026,0.385L106.99,0L107.953,0.668L108.917,2.158L109.88,3.751L110.844,6.782L111.807,7.784L112.771,7.99L113.734,9.146L114.698,11.381L115.662,12.357L116.625,13.95L117.589,15.311L118.552,16.699L119.516,17.264L120.479,20.244L121.443,23.661L122.406,24.868L123.37,26.564L124.333,28.362L125.297,30.495L126.26,32.293L127.224,35.504L128.187,38.767L129.151,40.411L130.114,42.03L131.078,43.494L132.041,44.522L133.005,46.243L133.968,50.405L134.932,53.59L135.895,56.827L136.859,58.446L137.822,60.116L138.786,60.681L139.749,61.785L140.713,63.943L141.676,66.821L142.64,69.261L143.603,71.882L144.567,72.832L145.53,73.449L146.494,74.528L147.457,76.763L148.421,78.613L149.384,80.591L150.308,82.184L151.271,82.595L152.235,83.134L153.198,83.186L154.162,84.599L155.125,86.243L156.089,86.885L157.052,87.99L158.016,89.531L158.979,90.045L159.943,90.662L160.906,92.486L161.87,93.025L162.833,93.385L163.797,93.539L164.76,94.155L165.724,94.361L166.687,94.104L167.651,95.645L168.615,97.007L169.578,96.724L170.542,97.367L171.505,97.778L172.469,97.881L173.432,98.317L174.396,99.422L175.359,99.987L176.323,100.963L177.286,102.042L178.25,102.762L179.213,102.762L180.177,103.198L181.14,103.918L182.104,104.663L183.067,105.768L184.031,106.692L184.994,107.437L185.958,107.9L186.921,109.082L187.885,109.261L188.848,107.694L189.812,109.364L190.775,110.212L191.739,111.265L192.702,111.522L193.666,111.959L194.629,112.601L195.593,112.807L196.556,112.396L197.52,112.704L198.483,112.935L199.447,113.269L200.41,113.141L201.374,113.32L202.337,113.937L203.301,113.706L204.264,113.5L205.228,113.218L206.191,112.987L207.155,112.755L208.118,112.524L209.082,114.631L210.045,114.22L211.009,114.091L211.973,113.937L212.936,114.194L213.9,114.322L214.863,114.348L215.827,114.862L216.79,115.17L217.754,115.273L218.717,114.528L219.681,114.066L220.644,114.22L221.608,114.708L222.571,114.399L223.535,115.17L224.498,116.044L225.462,116.249L226.425,116.198L227.389,115.761L228.352,117.225L229.316,117.508L230.279,118.382L231.243,118.51L232.206,118.741L233.17,118.972L234.133,119.127L235.097,119.769L236.06,119.589L237.024,120.565L237.987,121.387L238.951,121.798L239.914,122.132L240.878,122.62L241.841,122.903L242.805,124.29L243.768,124.933L244.732,124.855L245.695,125.164L246.659,125.395L247.622,125.96L248.586,126.474L249.549,126.808L250.513,127.091L251.476,127.604L252.44,127.938L253.404,127.681L254.367,127.938L255.331,128.015L256.294,128.298L257.258,127.656L258.221,127.142L259.185,127.193L260.148,127.707L261.112,127.784L262.075,128.324L263.039,127.836L264.002,127.656L264.966,127.913L265.929,128.195L266.893,128.76L267.856,129.171L268.82,129.171L269.783,129.326L270.747,129.017L271.71,128.94L272.674,128.992L273.637,129.094L274.601,128.915L275.564,129.839L276.528,130.482L277.491,131.304L278.455,131.509L279.418,132.023L280.382,132.229L281.345,132.357L282.309,132.588L283.272,132.922L284.236,133.308L285.199,133.565L286.163,133.796L287.126,133.436L288.09,133.41L289.053,133.436L290.017,133.256L290.98,133.462L291.944,133.642L292.907,133.719L293.871,134.001L294.835,134.387L295.798,133.77L296.762,133.719L297.725,133.616L298.689,133.487L299.652,133.59L300.616,133.359L301.579,133.513L302.543,133.436L303.506,133.616L304.47,133.565L305.433,133.359L306.397,133.539L307.36,133.693L308.324,133.77L309.287,133.847L310.251,133.873L311.214,133.924L312.178,134.13L313.141,134.258L314.105,134.592L315.068,134.823L316.032,135.311L316.995,135.363L317.959,135.466L318.922,135.697L319.886,135.825L320.849,136.031L321.813,135.671L322.776,135.825L323.74,135.877L324.703,136.082L325.667,136.365L326.63,136.827L327.594,136.879L328.557,136.981L329.521,137.213L330.484,138.086L331.448,138.626L332.411,138.677L333.375,138.626L334.338,138.42L335.302,138.446L336.266,138.42L337.229,138.882L338.193,139.114L339.156,139.088L340.12,139.139L341.083,139.139L342.047,139.473L343.01,138.96L343.974,138.215L344.937,138.112L345.901,137.752L346.864,137.495L347.828,137.675L348.791,137.547L349.755,137.392L350.718,136.802L351.682,136.031L352.645,136.005L353.609,136.185L354.572,136.39L355.536,136.082L356.499,135.645L357.463,134.926L358.426,134.489L359.39,134.31L360.353,134.181L361.317,134.207L362.28,134.361L363.244,134.541L364.207,135.132L365.171,135.26L366.134,135.517L367.098,135.62L368.061,135.748L369.025,135.825L369.988,135.645L370.952,135.723L371.915,136.082L372.879,136.108L373.842,136.185L374.806,135.979L375.769,136.211L376.733,135.979L377.696,135.645L378.66,135.62L379.664,135.851L380.627,135.594L381.591,135.671L382.554,135.286L383.518,135.08L384.481,134.592L385.445,134.13L386.408,133.95L387.372,133.642L388.335,133.616L389.299,133.565L390.262,132.897L391.226,132.383L392.189,131.843L393.153,131.124L394.116,130.507L395.08,130.276L396.043,129.839L397.007,129.917L397.97,129.942L398.934,129.942L399.897,129.583L400.861,129.48L401.824,129.017L402.788,128.966L403.751,128.683L404.715,128.426L405.678,128.298L406.642,128.349L407.605,127.964L408.569,127.964L409.533,127.938L410.496,127.476L411.46,127.502L412.423,127.81L413.387,128.504L414.35,128.786L415.314,129.094L416.277,129.351L417.241,129.608L418.204,130.533L419.168,131.484L420.131,132.511L421.095,133.359L422.058,133.924L423.022,134.489L423.985,134.952L424.949,135.851L425.912,136.776L426.876,137.855L427.839,138.96L428.803,139.396L429.766,139.859L430.73,141.965L431.693,143.635L432.657,144.868L433.62,145.613L434.584,146.564L435.547,147.103L436.511,147.746L437.474,149.261L438.438,150.238L439.401,150.777L440.365,151.24L441.328,151.476L442.292,151.51L443.255,151.488L444.219,152.923L445.182,153.964L446.146,154.713L447.109,154.644L448.073,155.103L449.036,154.965L450,154.948L450,159.559L449.036,159.55L448.073,159.585L447.109,159.461L446.146,159.496L445.182,159.494L444.219,159.143L443.255,159.011L442.292,159.035L441.328,159.029L440.365,158.972L439.401,158.87L438.438,158.767L437.474,158.69L436.511,158.407L435.547,158.304L434.584,158.227L433.62,158.15L432.657,158.15L431.693,157.893L430.73,157.714L429.766,157.482L428.803,157.508L427.839,157.431L426.876,157.38L425.912,157.174L424.949,157.071L423.985,157.251L423.022,157.225L422.058,157.123L421.095,157.097L420.131,157.097L419.168,157.174L418.204,156.994L417.241,156.891L416.277,156.969L415.314,157.046L414.35,157.097L413.387,157.046L412.423,156.917L411.46,156.917L410.496,156.943L409.533,156.969L408.569,156.943L407.605,156.994L406.642,157.046L405.678,157.02L404.715,156.994L403.751,156.866L402.788,156.969L401.824,157.02L400.861,156.994L399.897,156.943L398.934,156.866L397.97,156.994L397.007,157.02L396.043,157.046L395.08,157.02L394.116,157.02L393.153,157.148L392.189,157.277L391.226,157.405L390.262,157.457L389.299,157.457L388.335,157.457L387.372,157.457L386.408,157.457L385.445,157.482L384.481,157.534L383.518,157.714L382.554,157.714L381.591,157.765L380.627,157.816L379.664,157.765L378.66,157.765L377.696,157.739L376.733,157.636L375.769,157.611L374.806,157.611L373.842,157.585L372.879,157.534L371.915,157.534L370.952,157.559L369.988,157.636L369.025,157.636L368.061,157.585L367.098,157.534L366.134,157.482L365.171,157.636L364.207,157.585L363.244,157.482L362.28,157.277L361.317,157.2L360.353,157.174L359.39,157.328L358.426,157.38L357.463,157.405L356.499,157.559L355.536,157.457L354.572,157.508L353.609,157.508L352.645,157.534L351.682,157.431L350.718,157.457L349.755,157.303L348.791,157.405L347.828,157.457L346.864,157.482L345.901,157.559L344.937,157.611L343.974,157.688L343.01,157.791L342.047,157.893L341.083,157.945L340.12,157.945L339.156,157.919L338.193,157.765L337.229,157.868L336.266,157.868L335.302,157.945L334.338,157.919L333.375,157.945L332.411,157.996L331.448,158.099L330.484,158.022L329.521,158.15L328.557,158.073L327.594,158.022L326.63,157.945L325.667,157.919L324.703,157.765L323.74,157.688L322.776,157.662L321.813,157.636L320.849,157.662L319.886,157.534L318.922,157.431L317.959,157.457L316.995,157.38L316.032,157.251L315.068,157.328L314.105,157.2L313.141,157.123L312.178,156.969L311.214,156.866L310.251,156.891L309.287,156.789L308.324,156.814L307.36,156.789L306.397,156.686L305.433,156.609L304.47,156.66L303.506,156.686L302.543,156.609L301.579,156.686L300.616,156.686L299.652,156.891L298.689,156.891L297.725,156.917L296.762,156.866L295.798,156.917L294.835,156.84L293.871,156.737L292.907,156.789L291.944,156.917L290.98,156.737L290.017,156.763L289.053,156.737L288.09,156.557L287.126,156.583L286.163,156.737L285.199,156.686L284.236,156.686L283.272,156.532L282.309,156.506L281.345,156.352L280.382,156.326L279.418,156.275L278.455,156.301L277.491,156.275L276.528,156.172L275.564,155.915L274.601,155.89L273.637,156.069L272.674,155.864L271.71,155.658L270.747,155.812L269.783,155.658L268.82,155.556L267.856,155.684L266.893,155.633L265.929,155.581L264.966,155.504L264.002,155.324L263.039,155.222L262.075,155.17L261.112,155.067L260.148,154.965L259.185,154.939L258.221,154.811L257.258,154.785L256.294,154.785L255.331,154.862L254.367,154.862L253.404,154.733L252.44,154.836L251.476,154.811L250.513,154.759L249.549,154.862L248.586,154.862L247.622,154.682L246.659,154.502L245.695,154.322L244.732,154.245L243.768,154.22L242.805,154.168L241.841,154.117L240.878,154.143L239.914,153.988L238.951,153.886L237.987,153.783L237.024,153.5L236.06,153.269L235.097,153.243L234.133,153.038L233.17,153.064L232.206,152.884L231.243,152.807L230.279,152.601L229.316,152.241L228.352,151.933L227.389,151.753L226.425,151.728L225.462,151.753L224.498,151.574L223.535,151.291L222.571,151.162L221.608,151.162L220.644,151.188L219.681,151.188L218.717,151.162L217.754,151.265L216.79,151.522L215.827,151.342L214.863,151.06L213.9,150.957L212.936,150.829L211.973,150.931L211.009,150.931L210.045,151.008L209.082,151.06L208.118,149.184L207.155,148.953L206.191,149.03L205.228,149.107L204.264,149.056L203.301,149.082L202.337,149.004L201.374,148.696L200.41,148.362L199.447,148.388L198.483,148.182L197.52,148.182L196.556,147.925L195.593,148.131L194.629,148.105L193.666,147.874L192.702,148.003L191.739,147.848L190.775,147.566L189.812,147.026L188.848,146.204L187.885,147.9L186.921,147.72L185.958,147.54L184.994,147.335L184.031,147.129L183.067,146.846L182.104,146.538L181.14,145.999L180.177,145.408L179.213,145.202L178.25,145.202L177.286,144.894L176.323,144.072L175.359,143.404L174.396,143.173L173.432,142.248L172.469,141.863L171.505,141.785L170.542,141.58L169.578,141.426L168.615,141.683L167.651,140.989L166.687,140.116L165.724,140.141L164.76,140.064L163.797,139.679L162.833,139.525L161.87,139.062L160.906,138.805L159.943,137.675L158.979,137.367L158.016,136.853L157.052,135.594L156.089,135.055L155.125,134.618L154.162,133.539L153.198,132.768L152.235,132.588L151.271,132.177L150.308,131.766L149.384,130.944L148.421,129.839L147.457,128.426L146.494,126.602L145.53,125.857L144.567,125.472L143.603,124.367L142.64,122.543L141.676,120.283L140.713,118.33L139.749,116.763L138.786,115.838L137.822,115.504L136.859,114.04L135.895,112.73L134.932,110.058L133.968,107.54L133.005,104.457L132.041,102.942L131.078,102.325L130.114,100.27L129.151,98.009L128.187,95.928L127.224,92.82L126.26,89.788L125.297,88.195L124.333,86.371L123.37,84.419L122.406,82.209L121.443,80.642L120.479,76.712L119.516,72.858L118.552,72.216L117.589,70.443L116.625,68.85L115.662,66.615L114.698,64.457L113.734,60.963L112.771,57.881L111.807,57.341L110.844,55.723L109.88,52.537L108.917,50.456L107.953,47.656L106.99,45.549L106.026,44.29L105.063,44.65L104.099,44.419L103.136,44.033L102.172,43.006L101.209,41.67L100.245,42.697L99.282,44.008L98.318,43.391L97.355,43.237L96.391,42.877L95.428,42.441L94.464,45.703L93.501,48.812L92.537,52.049L91.574,52.203L90.61,52.691L89.647,54.284L88.683,56.956L87.72,62.042L86.756,66.384L85.793,69.621L84.829,69.57L83.866,70.495L82.902,71.728L81.939,74.04L80.975,76.429L80.012,78.048L79.048,78.844L78.085,79.949L77.121,81.439L76.158,83.699L75.194,85.883L74.231,84.83L73.267,85.703L72.304,87.091L71.34,88.529L70.376,89.48L69.413,91.972L68.449,92.82L67.486,91.92L66.522,92.46L65.559,93.719L64.595,94.155L63.632,95.029L62.668,96.365L61.705,98.009L60.741,99.473L59.778,101.785L58.814,104.38L57.851,104.92L56.887,105.536L55.924,107.283L54.96,109.287L53.997,111.805L53.033,113.732L52.07,115.453L51.106,115.915L50.143,116.763L49.179,117.816L48.216,119.024L47.252,119.974L46.289,121.464L45.325,123.391L44.362,124.342L43.398,124.496L42.435,125.575L41.471,125.909L40.508,127.065L39.544,127.63L38.581,129.249L37.617,129.917L36.654,130.456L35.69,130.739L34.727,131.304L33.763,131.561L32.8,132.511L31.836,132.845L30.873,132.588L29.909,132.408L28.945,132.768L27.942,132.794L26.978,133.231L26.015,133.539L25.051,133.333L24.088,133.821L23.124,134.181L22.161,134.207L21.197,135.08L20.234,135.568L19.27,136.622L18.307,137.136L17.343,137.264L16.38,137.315L15.416,137.495L14.453,137.752L13.489,138.317L12.526,138.626L11.562,139.833L10.599,140.604L9.635,141.297L8.672,141.441L7.708,142.111L6.745,142.796L5.781,143.593L4.818,144.894L3.854,144.678L2.891,144.509L1.927,144.894L0.964,145.209L0,145.924Z" fill="#007EA7"/></g></g><path class="foreground" aria-hidden="true" d="" display="none"/></g><g transform="translate(0,0)"><path class="background" aria-hidden="true" d="M0,0h450v160h-450Z"/><g><g class="mark-area role-mark child_marks" role="graphics-object" aria-roledescription="area mark container"><path aria-label="date: Oct-2024; count_or_fraction: 26.0909090909; set of strains: not library strain match; set_of_strains: not library strain match; statistic: count" role="graphics-symbol" aria-roledescription="area mark" d="M0,145.924L0.964,145.209L1.927,144.894L2.891,144.509L3.854,144.678L4.818,144.894L5.781,143.593L6.745,142.796L7.708,142.111L8.672,141.441L9.635,141.297L10.599,140.604L11.562,139.833L12.526,138.626L13.489,138.317L14.453,137.752L15.416,137.495L16.38,137.315L17.343,137.264L18.307,137.136L19.27,136.622L20.234,135.568L21.197,135.08L22.161,134.207L23.124,134.181L24.088,133.821L25.051,133.333L26.015,133.539L26.978,133.231L27.942,132.794L28.945,132.768L29.909,132.408L30.873,132.588L31.836,132.845L32.8,132.511L33.763,131.561L34.727,131.304L35.69,130.739L36.654,130.456L37.617,129.917L38.581,129.249L39.544,127.63L40.508,127.065L41.471,125.909L42.435,125.575L43.398,124.496L44.362,124.342L45.325,123.391L46.289,121.464L47.252,119.974L48.216,119.024L49.179,117.816L50.143,116.763L51.106,115.915L52.07,115.453L53.033,113.732L53.997,111.805L54.96,109.287L55.924,107.283L56.887,105.536L57.851,104.92L58.814,104.38L59.778,101.785L60.741,99.473L61.705,98.009L62.668,96.365L63.632,95.029L64.595,94.155L65.559,93.719L66.522,92.46L67.486,91.92L68.449,92.82L69.413,91.972L70.376,89.48L71.34,88.529L72.304,87.091L73.267,85.703L74.231,84.83L75.194,85.883L76.158,83.699L77.121,81.439L78.085,79.949L79.048,78.844L80.012,78.048L80.975,76.429L81.939,74.04L82.902,71.728L83.866,70.495L84.829,69.57L85.793,69.621L86.756,66.384L87.72,62.042L88.683,56.956L89.647,54.284L90.61,52.691L91.574,52.203L92.537,52.049L93.501,48.812L94.464,45.703L95.428,42.441L96.391,42.877L97.355,43.237L98.318,43.391L99.282,44.008L100.245,42.697L101.209,41.67L102.172,43.006L103.136,44.033L104.099,44.419L105.063,44.65L106.026,44.29L106.99,45.549L107.953,47.656L108.917,50.456L109.88,52.537L110.844,55.723L111.807,57.341L112.771,57.881L113.734,60.963L114.698,64.457L115.662,66.615L116.625,68.85L117.589,70.443L118.552,72.216L119.516,72.858L120.479,76.712L121.443,80.642L122.406,82.209L123.37,84.419L124.333,86.371L125.297,88.195L126.26,89.788L127.224,92.82L128.187,95.928L129.151,98.009L130.114,100.27L131.078,102.325L132.041,102.942L133.005,104.457L133.968,107.54L134.932,110.058L135.895,112.73L136.859,114.04L137.822,115.504L138.786,115.838L139.749,116.763L140.713,118.33L141.676,120.283L142.64,122.543L143.603,124.367L144.567,125.472L145.53,125.857L146.494,126.602L147.457,128.426L148.421,129.839L149.384,130.944L150.308,131.766L151.271,132.177L152.235,132.588L153.198,132.768L154.162,133.539L155.125,134.618L156.089,135.055L157.052,135.594L158.016,136.853L158.979,137.367L159.943,137.675L160.906,138.805L161.87,139.062L162.833,139.525L163.797,139.679L164.76,140.064L165.724,140.141L166.687,140.116L167.651,140.989L168.615,141.683L169.578,141.426L170.542,141.58L171.505,141.785L172.469,141.863L173.432,142.248L174.396,143.173L175.359,143.404L176.323,144.072L177.286,144.894L178.25,145.202L179.213,145.202L180.177,145.408L181.14,145.999L182.104,146.538L183.067,146.846L184.031,147.129L184.994,147.335L185.958,147.54L186.921,147.72L187.885,147.9L188.848,146.204L189.812,147.026L190.775,147.566L191.739,147.848L192.702,148.003L193.666,147.874L194.629,148.105L195.593,148.131L196.556,147.925L197.52,148.182L198.483,148.182L199.447,148.388L200.41,148.362L201.374,148.696L202.337,149.004L203.301,149.082L204.264,149.056L205.228,149.107L206.191,149.03L207.155,148.953L208.118,149.184L209.082,151.06L210.045,151.008L211.009,150.931L211.973,150.931L212.936,150.829L213.9,150.957L214.863,151.06L215.827,151.342L216.79,151.522L217.754,151.265L218.717,151.162L219.681,151.188L220.644,151.188L221.608,151.162L222.571,151.162L223.535,151.291L224.498,151.574L225.462,151.753L226.425,151.728L227.389,151.753L228.352,151.933L229.316,152.241L230.279,152.601L231.243,152.807L232.206,152.884L233.17,153.064L234.133,153.038L235.097,153.243L236.06,153.269L237.024,153.5L237.987,153.783L238.951,153.886L239.914,153.988L240.878,154.143L241.841,154.117L242.805,154.168L243.768,154.22L244.732,154.245L245.695,154.322L246.659,154.502L247.622,154.682L248.586,154.862L249.549,154.862L250.513,154.759L251.476,154.811L252.44,154.836L253.404,154.733L254.367,154.862L255.331,154.862L256.294,154.785L257.258,154.785L258.221,154.811L259.185,154.939L260.148,154.965L261.112,155.067L262.075,155.17L263.039,155.222L264.002,155.324L264.966,155.504L265.929,155.581L266.893,155.633L267.856,155.684L268.82,155.556L269.783,155.658L270.747,155.812L271.71,155.658L272.674,155.864L273.637,156.069L274.601,155.89L275.564,155.915L276.528,156.172L277.491,156.275L278.455,156.301L279.418,156.275L280.382,156.326L281.345,156.352L282.309,156.506L283.272,156.532L284.236,156.686L285.199,156.686L286.163,156.737L287.126,156.583L288.09,156.557L289.053,156.737L290.017,156.763L290.98,156.737L291.944,156.917L292.907,156.789L293.871,156.737L294.835,156.84L295.798,156.917L296.762,156.866L297.725,156.917L298.689,156.891L299.652,156.891L300.616,156.686L301.579,156.686L302.543,156.609L303.506,156.686L304.47,156.66L305.433,156.609L306.397,156.686L307.36,156.789L308.324,156.814L309.287,156.789L310.251,156.891L311.214,156.866L312.178,156.969L313.141,157.123L314.105,157.2L315.068,157.328L316.032,157.251L316.995,157.38L317.959,157.457L318.922,157.431L319.886,157.534L320.849,157.662L321.813,157.636L322.776,157.662L323.74,157.688L324.703,157.765L325.667,157.919L326.63,157.945L327.594,158.022L328.557,158.073L329.521,158.15L330.484,158.022L331.448,158.099L332.411,157.996L333.375,157.945L334.338,157.919L335.302,157.945L336.266,157.868L337.229,157.868L338.193,157.765L339.156,157.919L340.12,157.945L341.083,157.945L342.047,157.893L343.01,157.791L343.974,157.688L344.937,157.611L345.901,157.559L346.864,157.482L347.828,157.457L348.791,157.405L349.755,157.303L350.718,157.457L351.682,157.431L352.645,157.534L353.609,157.508L354.572,157.508L355.536,157.457L356.499,157.559L357.463,157.405L358.426,157.38L359.39,157.328L360.353,157.174L361.317,157.2L362.28,157.277L363.244,157.482L364.207,157.585L365.171,157.636L366.134,157.482L367.098,157.534L368.061,157.585L369.025,157.636L369.988,157.636L370.952,157.559L371.915,157.534L372.879,157.534L373.842,157.585L374.806,157.611L375.769,157.611L376.733,157.636L377.696,157.739L378.66,157.765L379.664,157.765L380.627,157.816L381.591,157.765L382.554,157.714L383.518,157.714L384.481,157.534L385.445,157.482L386.408,157.457L387.372,157.457L388.335,157.457L389.299,157.457L390.262,157.457L391.226,157.405L392.189,157.277L393.153,157.148L394.116,157.02L395.08,157.02L396.043,157.046L397.007,157.02L397.97,156.994L398.934,156.866L399.897,156.943L400.861,156.994L401.824,157.02L402.788,156.969L403.751,156.866L404.715,156.994L405.678,157.02L406.642,157.046L407.605,156.994L408.569,156.943L409.533,156.969L410.496,156.943L411.46,156.917L412.423,156.917L413.387,157.046L414.35,157.097L415.314,157.046L416.277,156.969L417.241,156.891L418.204,156.994L419.168,157.174L420.131,157.097L421.095,157.097L422.058,157.123L423.022,157.225L423.985,157.251L424.949,157.071L425.912,157.174L426.876,157.38L427.839,157.431L428.803,157.508L429.766,157.482L430.73,157.714L431.693,157.893L432.657,158.15L433.62,158.15L434.584,158.227L435.547,158.304L436.511,158.407L437.474,158.69L438.438,158.767L439.401,158.87L440.365,158.972L441.328,159.029L442.292,159.035L443.255,159.011L444.219,159.143L445.182,159.494L446.146,159.496L447.109,159.461L448.073,159.585L449.036,159.55L450,159.559L450,160L449.036,160L448.073,160L447.109,160L446.146,160L445.182,160L444.219,160L443.255,160L442.292,160L441.328,160L440.365,160L439.401,160L438.438,160L437.474,160L436.511,160L435.547,160L434.584,160L433.62,160L432.657,160L431.693,160L430.73,160L429.766,160L428.803,160L427.839,160L426.876,160L425.912,160L424.949,160L423.985,160L423.022,160L422.058,160L421.095,160L420.131,160L419.168,160L418.204,160L417.241,160L416.277,160L415.314,160L414.35,160L413.387,160L412.423,160L411.46,160L410.496,160L409.533,160L408.569,160L407.605,160L406.642,160L405.678,160L404.715,160L403.751,160L402.788,160L401.824,160L400.861,160L399.897,160L398.934,160L397.97,160L397.007,160L396.043,160L395.08,160L394.116,160L393.153,160L392.189,160L391.226,160L390.262,160L389.299,160L388.335,160L387.372,160L386.408,160L385.445,160L384.481,160L383.518,160L382.554,160L381.591,160L380.627,160L379.664,160L378.66,160L377.696,160L376.733,160L375.769,160L374.806,160L373.842,160L372.879,160L371.915,160L370.952,160L369.988,160L369.025,160L368.061,160L367.098,160L366.134,160L365.171,160L364.207,160L363.244,160L362.28,160L361.317,160L360.353,160L359.39,160L358.426,160L357.463,160L356.499,160L355.536,160L354.572,160L353.609,160L352.645,160L351.682,160L350.718,160L349.755,160L348.791,160L347.828,160L346.864,160L345.901,160L344.937,160L343.974,160L343.01,160L342.047,160L341.083,160L340.12,160L339.156,160L338.193,160L337.229,160L336.266,160L335.302,160L334.338,160L333.375,160L332.411,160L331.448,160L330.484,160L329.521,160L328.557,160L327.594,160L326.63,160L325.667,160L324.703,160L323.74,160L322.776,160L321.813,160L320.849,160L319.886,160L318.922,160L317.959,160L316.995,160L316.032,160L315.068,160L314.105,160L313.141,160L312.178,160L311.214,160L310.251,160L309.287,160L308.324,160L307.36,160L306.397,160L305.433,160L304.47,160L303.506,160L302.543,160L301.579,160L300.616,160L299.652,160L298.689,160L297.725,160L296.762,160L295.798,160L294.835,160L293.871,160L292.907,160L291.944,160L290.98,160L290.017,160L289.053,160L288.09,160L287.126,160L286.163,160L285.199,160L284.236,160L283.272,160L282.309,160L281.345,160L280.382,160L279.418,160L278.455,160L277.491,160L276.528,160L275.564,160L274.601,160L273.637,160L272.674,160L271.71,160L270.747,160L269.783,160L268.82,160L267.856,160L266.893,160L265.929,160L264.966,160L264.002,160L263.039,160L262.075,160L261.112,160L260.148,160L259.185,160L258.221,160L257.258,160L256.294,160L255.331,160L254.367,160L253.404,160L252.44,160L251.476,160L250.513,160L249.549,160L248.586,160L247.622,160L246.659,160L245.695,160L244.732,160L243.768,160L242.805,160L241.841,160L240.878,160L239.914,160L238.951,160L237.987,160L237.024,160L236.06,160L235.097,160L234.133,160L233.17,160L232.206,160L231.243,160L230.279,160L229.316,160L228.352,160L227.389,160L226.425,160L225.462,160L224.498,160L223.535,160L222.571,160L221.608,160L220.644,160L219.681,160L218.717,160L217.754,160L216.79,160L215.827,160L214.863,160L213.9,160L212.936,160L211.973,160L211.009,160L210.045,160L209.082,160L208.118,160L207.155,160L206.191,160L205.228,160L204.264,160L203.301,160L202.337,160L201.374,160L200.41,160L199.447,160L198.483,160L197.52,160L196.556,160L195.593,160L194.629,160L193.666,160L192.702,160L191.739,160L190.775,160L189.812,160L188.848,160L187.885,160L186.921,160L185.958,160L184.994,160L184.031,160L183.067,160L182.104,160L181.14,160L180.177,160L179.213,160L178.25,160L177.286,160L176.323,160L175.359,160L174.396,160L173.432,160L172.469,160L171.505,160L170.542,160L169.578,160L168.615,160L167.651,160L166.687,160L165.724,160L164.76,160L163.797,160L162.833,160L161.87,160L160.906,160L159.943,160L158.979,160L158.016,160L157.052,160L156.089,160L155.125,160L154.162,160L153.198,160L152.235,160L151.271,160L150.308,160L149.384,160L148.421,160L147.457,160L146.494,160L145.53,160L144.567,160L143.603,160L142.64,160L141.676,160L140.713,160L139.749,160L138.786,160L137.822,160L136.859,160L135.895,160L134.932,160L133.968,160L133.005,160L132.041,160L131.078,160L130.114,160L129.151,160L128.187,160L127.224,160L126.26,160L125.297,160L124.333,160L123.37,160L122.406,160L121.443,160L120.479,160L119.516,160L118.552,160L117.589,160L116.625,160L115.662,160L114.698,160L113.734,160L112.771,160L111.807,160L110.844,160L109.88,160L108.917,160L107.953,160L106.99,160L106.026,160L105.063,160L104.099,160L103.136,160L102.172,160L101.209,160L100.245,160L99.282,160L98.318,160L97.355,160L96.391,160L95.428,160L94.464,160L93.501,160L92.537,160L91.574,160L90.61,160L89.647,160L88.683,160L87.72,160L86.756,160L85.793,160L84.829,160L83.866,160L82.902,160L81.939,160L80.975,160L80.012,160L79.048,160L78.085,160L77.121,160L76.158,160L75.194,160L74.231,160L73.267,160L72.304,160L71.34,160L70.376,160L69.413,160L68.449,160L67.486,160L66.522,160L65.559,160L64.595,160L63.632,160L62.668,160L61.705,160L60.741,160L59.778,160L58.814,160L57.851,160L56.887,160L55.924,160L54.96,160L53.997,160L53.033,160L52.07,160L51.106,160L50.143,160L49.179,160L48.216,160L47.252,160L46.289,160L45.325,160L44.362,160L43.398,160L42.435,160L41.471,160L40.508,160L39.544,160L38.581,160L37.617,160L36.654,160L35.69,160L34.727,160L33.763,160L32.8,160L31.836,160L30.873,160L29.909,160L28.945,160L27.942,160L26.978,160L26.015,160L25.051,160L24.088,160L23.124,160L22.161,160L21.197,160L20.234,160L19.27,160L18.307,160L17.343,160L16.38,160L15.416,160L14.453,160L13.489,160L12.526,160L11.562,160L10.599,160L9.635,160L8.672,160L7.708,160L6.745,160L5.781,160L4.818,160L3.854,160L2.891,160L1.927,160L0.964,160L0,160Z" fill="#392F5A"/></g></g><path class="foreground" aria-hidden="true" d="" display="none"/></g></g></g><path class="foreground" aria-hidden="true" d="" display="none"/></g><g transform="translate(0,200)"><path class="background" aria-hidden="true" d="M0.5,0.5h450v160h-450Z" stroke="#ddd"/><g><g class="mark-group role-axis" role="graphics-symbol" aria-roledescription="axis" aria-label="Y-axis for a linear scale with values from 0.0 to 1.0"><g transform="translate(0.5,0.5)"><path class="background" aria-hidden="true" d="M0,0h0v0h0Z" pointer-events="none"/><g><g class="mark-rule role-axis-tick" pointer-events="none"><line transform="translate(0,160)" x2="-5" y2="0" stroke="#888" stroke-width="1" opacity="1"/><line transform="translate(0,128)" x2="-5" y2="0" stroke="#888" stroke-width="1" opacity="1"/><line transform="translate(0,96)" x2="-5" y2="0" stroke="#888" stroke-width="1" opacity="1"/><line transform="translate(0,64)" x2="-5" y2="0" stroke="#888" stroke-width="1" opacity="1"/><line transform="translate(0,32)" x2="-5" y2="0" stroke="#888" stroke-width="1" opacity="1"/><line transform="translate(0,0)" x2="-5" y2="0" stroke="#888" stroke-width="1" opacity="1"/></g><g class="mark-text role-axis-label" pointer-events="none"><text text-anchor="end" transform="translate(-7,165)" font-family="sans-serif" font-size="18px" fill="#000" opacity="1">0.0</text><text text-anchor="end" transform="translate(-7,133)" font-family="sans-serif" font-size="18px" fill="#000" opacity="1">0.2</text><text text-anchor="end" transform="translate(-7,101.00000000000001)" font-family="sans-serif" font-size="18px" fill="#000" opacity="1">0.4</text><text text-anchor="end" transform="translate(-7,69.00000000000003)" font-family="sans-serif" font-size="18px" fill="#000" opacity="1">0.6</text><text text-anchor="end" transform="translate(-7,37.00000000000003)" font-family="sans-serif" font-size="18px" fill="#000" opacity="1">0.8</text><text text-anchor="end" transform="translate(-7,5.0000000000000355)" font-family="sans-serif" font-size="18px" fill="#000" opacity="1">1.0</text></g><g class="mark-rule role-axis-domain" pointer-events="none"><line transform="translate(0,160)" x2="0" y2="-160" stroke="#888" stroke-width="1" opacity="1"/></g></g><path class="foreground" aria-hidden="true" d="" pointer-events="none" display="none"/></g></g><g class="mark-group role-scope child_pathgroup" role="graphics-object" aria-roledescription="group mark container"><g transform="translate(0,0)"><path class="background" aria-hidden="true" d="M0,0h450v160h-450Z"/><g><g class="mark-area role-mark child_marks" role="graphics-object" aria-roledescription="area mark container"><path aria-label="date: Oct-2024; count_or_fraction: 0.291358024691; set of strains: library strain match; set_of_strains: library strain match; statistic: fraction" role="graphics-symbol" aria-roledescription="area mark" d="M0,0L0.964,0L1.927,0L2.891,0L3.854,0L4.818,0L5.781,0L6.745,0L7.708,0L8.672,0L9.635,0L10.599,0L11.562,0L12.526,0L13.489,0L14.453,0L15.416,0L16.38,0L17.343,0L18.307,0L19.27,0L20.234,0L21.197,0L22.161,0L23.124,0L24.088,0L25.051,0L26.015,0L26.978,0L27.942,0L28.945,0L29.909,0L30.873,0L31.836,0L32.8,0L33.763,0L34.727,0L35.69,0L36.654,0L37.617,0L38.581,0L39.544,0L40.508,0L41.471,0L42.435,0L43.398,0L44.362,0L45.325,0L46.289,0L47.252,0L48.216,0L49.179,0L50.143,0L51.106,0L52.07,0L53.033,0L53.997,0L54.96,0L55.924,0L56.887,0L57.851,0L58.814,0L59.778,0L60.741,0L61.705,0L62.668,0L63.632,0L64.595,0L65.559,0L66.522,0L67.486,0L68.449,0L69.413,0L70.376,0L71.34,0L72.304,0L73.267,0L74.231,0L75.194,0L76.158,0L77.121,0L78.085,0L79.048,0L80.012,0L80.975,0L81.939,0L82.902,0L83.866,0L84.829,0L85.793,0L86.756,0L87.72,0L88.683,0L89.647,0L90.61,0L91.574,0L92.537,0L93.501,0L94.464,0L95.428,0L96.391,0L97.355,0L98.318,0L99.282,0L100.245,0L101.209,0L102.172,0L103.136,0L104.099,0L105.063,0L106.026,0L106.99,0L107.953,0L108.917,0L109.88,0L110.844,0L111.807,0L112.771,0L113.734,0L114.698,0L115.662,0L116.625,0L117.589,0L118.552,0L119.516,0L120.479,0L121.443,0L122.406,0L123.37,0L124.333,0L125.297,0L126.26,0L127.224,0L128.187,0L129.151,0L130.114,0L131.078,0L132.041,0L133.005,0L133.968,0L134.932,0L135.895,0L136.859,0L137.822,0L138.786,0L139.749,0L140.713,0L141.676,0L142.64,0L143.603,0L144.567,0L145.53,0L146.494,0L147.457,0L148.421,0L149.384,0L150.308,0L151.271,0L152.235,0L153.198,0L154.162,0L155.125,0L156.089,0L157.052,0L158.016,0L158.979,0L159.943,0L160.906,0L161.87,0L162.833,0L163.797,0L164.76,0L165.724,0L166.687,0L167.651,0L168.615,0L169.578,0L170.542,0L171.505,0L172.469,0L173.432,0L174.396,0L175.359,0L176.323,0L177.286,0L178.25,0L179.213,0L180.177,0L181.14,0L182.104,0L183.067,0L184.031,0L184.994,0L185.958,0L186.921,0L187.885,0L188.848,0L189.812,0L190.775,0L191.739,0L192.702,0L193.666,0L194.629,0L195.593,0L196.556,0L197.52,0L198.483,0L199.447,0L200.41,0L201.374,0L202.337,0L203.301,0L204.264,0L205.228,0L206.191,0L207.155,0L208.118,0L209.082,0L210.045,0L211.009,0L211.973,0L212.936,0L213.9,0L214.863,0L215.827,0L216.79,0L217.754,0L218.717,0L219.681,0L220.644,0L221.608,0L222.571,0L223.535,0L224.498,0L225.462,0L226.425,0L227.389,0L228.352,0L229.316,0L230.279,0L231.243,0L232.206,0L233.17,0L234.133,0L235.097,0L236.06,0L237.024,0L237.987,0L238.951,0L239.914,0L240.878,0L241.841,0L242.805,0L243.768,0L244.732,0L245.695,0L246.659,0L247.622,0L248.586,0L249.549,0L250.513,0L251.476,0L252.44,0L253.404,0L254.367,0L255.331,0L256.294,0L257.258,0L258.221,0L259.185,0L260.148,0L261.112,0L262.075,0L263.039,0L264.002,0L264.966,0L265.929,0L266.893,0L267.856,0L268.82,0L269.783,0L270.747,0L271.71,0L272.674,0L273.637,0L274.601,0L275.564,0L276.528,0L277.491,0L278.455,0L279.418,0L280.382,0L281.345,0L282.309,0L283.272,0L284.236,0L285.199,0L286.163,0L287.126,0L288.09,0L289.053,0L290.017,0L290.98,0L291.944,0L292.907,0L293.871,0L294.835,0L295.798,0L296.762,0L297.725,0L298.689,0L299.652,0L300.616,0L301.579,0L302.543,0L303.506,0L304.47,0L305.433,0L306.397,0L307.36,0L308.324,0L309.287,0L310.251,0L311.214,0L312.178,0L313.141,0L314.105,0L315.068,0L316.032,0L316.995,0L317.959,0L318.922,0L319.886,0L320.849,0L321.813,0L322.776,0L323.74,0L324.703,0L325.667,0L326.63,0L327.594,0L328.557,0L329.521,0L330.484,0L331.448,0L332.411,0L333.375,0L334.338,0L335.302,0L336.266,0L337.229,0L338.193,0L339.156,0L340.12,0L341.083,0L342.047,0L343.01,0L343.974,0L344.937,0L345.901,0L346.864,0L347.828,0L348.791,0L349.755,0L350.718,0L351.682,0L352.645,0L353.609,0L354.572,0L355.536,0L356.499,0L357.463,0L358.426,0L359.39,0L360.353,0L361.317,0L362.28,0L363.244,0L364.207,0L365.171,0L366.134,0L367.098,0L368.061,0L369.025,0L369.988,0L370.952,0L371.915,0L372.879,0L373.842,0L374.806,0L375.769,0L376.733,0L377.696,0L378.66,0L379.664,0L380.627,0L381.591,0L382.554,0L383.518,0L384.481,0L385.445,0L386.408,0L387.372,0L388.335,0L389.299,0L390.262,0L391.226,0L392.189,0L393.153,0L394.116,0L395.08,0L396.043,0L397.007,0L397.97,0L398.934,0L399.897,0L400.861,0L401.824,0L402.788,0L403.751,0L404.715,0L405.678,0L406.642,0L407.605,0L408.569,0L409.533,0L410.496,0L411.46,0L412.423,0L413.387,0L414.35,0L415.314,0L416.277,0L417.241,0L418.204,0L419.168,0L420.131,0L421.095,0L422.058,0L423.022,0L423.985,0L424.949,0L425.912,0L426.876,0L427.839,0L428.803,0L429.766,0L430.73,0L431.693,0L432.657,0L433.62,0L434.584,0L435.547,0L436.511,0L437.474,0L438.438,0L439.401,0L440.365,0L441.328,0L442.292,0L443.255,0L444.219,0L445.182,0L446.146,0L447.109,0L448.073,0L449.036,0L450,0L450,146.019L449.036,145.714L448.073,146.441L447.109,143.885L446.146,144.762L445.182,146.592L444.219,140.628L443.255,141.408L442.292,141.806L441.328,141.772L440.365,141.232L439.401,140.39L438.438,139.789L437.474,140.478L436.511,139.203L435.547,138.964L434.584,138.891L433.62,139.429L432.657,140.441L431.693,139.403L430.73,139.715L429.766,140L428.803,140.648L427.839,140.464L426.876,141.067L425.912,140.531L424.949,140.596L423.985,142.441L423.022,142.598L422.058,142.345L421.095,142.565L420.131,143.103L419.168,144.144L418.204,143.679L417.241,143.635L416.277,144.174L415.314,144.705L414.35,145.119L413.387,144.992L412.423,144.677L411.46,144.822L410.496,144.961L409.533,144.872L408.569,144.731L407.605,144.988L406.642,145.065L405.678,144.959L404.715,144.768L403.751,143.987L402.788,144.371L401.824,144.61L400.861,144.242L399.897,143.919L398.934,143.316L397.97,144L397.007,144.15L396.043,144.327L395.08,143.959L394.116,143.833L393.153,144.199L392.189,144.526L391.226,144.967L390.262,144.986L389.299,144.606L388.335,144.576L387.372,144.561L386.408,144.379L385.445,144.429L384.481,144.469L383.518,145.32L382.554,145.198L381.591,145.301L380.627,145.684L379.664,145.191L378.66,145.332L377.696,145.148L376.733,144.257L375.769,143.931L374.806,144.086L373.842,143.776L372.879,143.484L371.915,143.502L370.952,143.915L369.988,144.473L369.025,144.357L368.061,144.068L367.098,143.815L366.134,143.547L365.171,144.714L364.207,144.463L363.244,144.178L362.28,143.006L361.317,142.629L360.353,142.488L359.39,143.36L358.426,143.565L357.463,143.443L356.499,143.966L355.536,142.986L354.572,143.112L353.609,143.258L352.645,143.555L351.682,142.851L350.718,142.458L349.755,140.909L348.791,141.51L347.828,141.772L346.864,142.1L345.901,142.448L344.937,142.535L343.974,143.019L343.01,143.199L342.047,143.579L341.083,144.236L340.12,144.236L339.156,144.079L338.193,142.878L337.229,143.844L336.266,144.19L335.302,144.744L334.338,144.571L333.375,144.615L332.411,144.964L331.448,145.769L330.484,145.557L329.521,147.012L328.557,146.607L327.594,146.311L326.63,145.809L325.667,145.913L324.703,145.048L323.74,144.665L322.776,144.527L321.813,144.456L320.849,144.394L319.886,143.677L318.922,143.087L317.959,143.414L316.995,142.982L316.032,142.185L315.068,143.02L314.105,142.366L313.141,142.116L312.178,141.251L311.214,140.768L310.251,140.964L309.287,140.354L308.324,140.568L307.36,140.469L306.397,139.961L305.433,139.634L304.47,139.786L303.506,139.903L302.543,139.574L301.579,139.981L300.616,140.096L299.652,141.167L298.689,141.24L297.725,141.305L296.762,140.919L295.798,141.195L294.835,140.261L293.871,139.921L292.907,140.45L291.944,141.287L290.98,140.329L290.017,140.634L289.053,140.348L288.09,139.285L287.126,139.42L286.163,140.078L285.199,139.942L284.236,140.135L283.272,139.507L282.309,139.606L281.345,138.885L280.382,138.834L279.418,138.696L278.455,139.225L277.491,139.23L276.528,139.252L275.564,138.33L274.601,138.843L273.637,139.651L272.674,138.658L271.71,137.634L270.747,138.375L269.783,137.353L268.82,136.933L267.856,137.6L266.893,137.632L265.929,137.771L264.966,137.582L264.002,136.871L263.039,136.23L262.075,135.604L261.112,135.502L260.148,135.052L259.185,135.317L258.221,134.73L257.258,134.202L256.294,133.679L255.331,134.297L254.367,134.359L253.404,133.927L252.44,134.231L251.476,134.37L250.513,134.52L249.549,135.232L248.586,135.479L247.622,135.004L246.659,134.581L245.695,133.923L244.732,133.801L243.768,133.626L242.805,133.871L241.841,134.626L240.878,134.928L239.914,134.6L238.951,134.391L237.987,134.238L237.024,133.629L236.06,133.35L235.097,133.129L234.133,132.747L233.17,132.949L232.206,132.403L231.243,132.26L230.279,131.556L229.316,130.786L228.352,129.826L227.389,130.174L226.425,129.783L225.462,129.841L224.498,129.328L223.535,128.917L222.571,128.992L221.608,128.78L220.644,129.203L219.681,129.306L218.717,128.904L217.754,128.754L216.79,129.742L215.827,129.311L214.863,128.666L213.9,128.324L212.936,127.964L211.973,128.5L211.009,128.394L210.045,128.575L209.082,128.471L208.118,123.55L207.155,122.588L206.191,122.667L205.228,122.746L204.264,122.343L203.301,122.264L202.337,121.807L201.374,121.255L200.41,120.263L199.447,120.242L198.483,119.825L197.52,120.022L196.556,119.417L195.593,119.76L194.629,119.848L193.666,119.615L192.702,120.403L191.739,120.105L190.775,120.041L189.812,119.006L188.848,117.8L187.885,121.843L186.921,121.413L185.958,121.736L184.994,121.447L184.031,121.369L183.067,121.194L182.104,121.077L181.14,120.055L180.177,118.896L179.213,118.636L178.25,118.636L177.286,118.298L176.323,116.832L175.359,115.753L174.396,115.556L173.432,113.953L172.469,113.284L171.505,113.163L170.542,112.945L169.578,113.033L168.615,113.475L167.651,112.735L166.687,111.719L165.724,111.593L164.76,111.557L163.797,111.078L162.833,110.821L161.87,109.981L160.906,109.772L159.943,108.485L158.979,108.234L158.016,107.444L157.052,105.772L156.089,105.411L155.125,104.939L154.162,103.85L153.198,103.278L152.235,102.941L151.271,102.489L150.308,101.948L149.384,101.456L148.421,100.707L147.457,99.309L146.494,97.481L145.53,96.883L144.567,96.622L143.603,95.3L142.64,93.952L141.676,91.8L140.713,90.591L139.749,89.563L138.786,88.857L137.822,88.724L136.859,87.589L135.895,86.693L134.932,84.906L133.968,83.413L133.005,81.879L132.041,80.943L131.078,80.794L130.114,78.99L129.151,77.061L128.187,75.44L127.224,73.661L126.26,72.034L125.297,71.287L124.333,70.507L123.37,69.372L122.406,67.894L121.443,66.87L120.479,64.647L119.516,62.318L118.552,61.986L117.589,60.966L116.625,60.144L115.662,58.799L114.698,57.141L113.734,54.959L112.771,52.513L111.807,52.091L110.844,51.107L109.88,49.957L108.917,48.958L107.953,47.185L106.99,45.549L106.026,44.011L105.063,43.092L104.099,42.109L103.136,41.464L102.172,40.256L101.209,39.345L100.245,38.483L99.282,37.829L98.318,36.867L97.355,37.1L96.391,36.387L95.428,35.737L94.464,35.618L93.501,35.229L92.537,35.126L91.574,34.559L90.61,34.187L89.647,34.303L88.683,33.62L87.72,33.794L86.756,33.692L85.793,33.425L84.829,33.296L83.866,33.251L82.902,32.77L81.939,32.866L80.975,32.65L80.012,32.496L79.048,32.396L78.085,32.556L77.121,31.614L76.158,31.359L75.194,31.169L74.231,30.924L73.267,30.423L72.304,30.189L71.34,30.152L70.376,29.674L69.413,29.275L68.449,29.617L67.486,29.418L66.522,29L65.559,29.367L64.595,29.193L63.632,28.964L62.668,29.417L61.705,29.081L60.741,28.38L59.778,28.399L58.814,28.038L57.851,27.501L56.887,27.861L55.924,28.039L54.96,28.07L53.997,28.581L53.033,29.374L52.07,29.379L51.106,28.945L50.143,29.345L49.179,29.294L48.216,29.061L47.252,29.555L46.289,30.759L45.325,30.381L44.362,30.28L43.398,30.614L42.435,30.61L41.471,31.009L40.508,31.479L39.544,30.354L38.581,30.856L37.617,30.608L36.654,30.696L35.69,30.66L34.727,29.927L33.763,29.284L32.8,29.313L31.836,29.203L30.873,28.879L29.909,28.322L28.945,27.707L27.942,28.037L26.978,27.367L26.015,26.559L25.051,25.956L24.088,26.688L23.124,26.998L22.161,26.799L21.197,27.35L20.234,28.146L19.27,29.3L18.307,30.31L17.343,30.567L16.38,30.385L15.416,30.462L14.453,31.107L13.489,33.083L12.526,34.178L11.562,34.274L10.599,34.948L9.635,36.479L8.672,37.689L7.708,38.554L6.745,39.633L5.781,40.807L4.818,42.876L3.854,42.887L2.891,43.267L1.927,44.444L0.964,45.066L0,46.617Z" fill="#007EA7"/></g></g><path class="foreground" aria-hidden="true" d="" display="none"/></g><g transform="translate(0,0)"><path class="background" aria-hidden="true" d="M0,0h450v160h-450Z"/><g><g class="mark-area role-mark child_marks" role="graphics-object" aria-roledescription="area mark container"><path aria-label="date: Oct-2024; count_or_fraction: 0.708641975309; set of strains: not library strain match; set_of_strains: not library strain match; statistic: fraction" role="graphics-symbol" aria-roledescription="area mark" d="M0,46.617L0.964,45.066L1.927,44.444L2.891,43.267L3.854,42.887L4.818,42.876L5.781,40.807L6.745,39.633L7.708,38.554L8.672,37.689L9.635,36.479L10.599,34.948L11.562,34.274L12.526,34.178L13.489,33.083L14.453,31.107L15.416,30.462L16.38,30.385L17.343,30.567L18.307,30.31L19.27,29.3L20.234,28.146L21.197,27.35L22.161,26.799L23.124,26.998L24.088,26.688L25.051,25.956L26.015,26.559L26.978,27.367L27.942,28.037L28.945,27.707L29.909,28.322L30.873,28.879L31.836,29.203L32.8,29.313L33.763,29.284L34.727,29.927L35.69,30.66L36.654,30.696L37.617,30.608L38.581,30.856L39.544,30.354L40.508,31.479L41.471,31.009L42.435,30.61L43.398,30.614L44.362,30.28L45.325,30.381L46.289,30.759L47.252,29.555L48.216,29.061L49.179,29.294L50.143,29.345L51.106,28.945L52.07,29.379L53.033,29.374L53.997,28.581L54.96,28.07L55.924,28.039L56.887,27.861L57.851,27.501L58.814,28.038L59.778,28.399L60.741,28.38L61.705,29.081L62.668,29.417L63.632,28.964L64.595,29.193L65.559,29.367L66.522,29L67.486,29.418L68.449,29.617L69.413,29.275L70.376,29.674L71.34,30.152L72.304,30.189L73.267,30.423L74.231,30.924L75.194,31.169L76.158,31.359L77.121,31.614L78.085,32.556L79.048,32.396L80.012,32.496L80.975,32.65L81.939,32.866L82.902,32.77L83.866,33.251L84.829,33.296L85.793,33.425L86.756,33.692L87.72,33.794L88.683,33.62L89.647,34.303L90.61,34.187L91.574,34.559L92.537,35.126L93.501,35.229L94.464,35.618L95.428,35.737L96.391,36.387L97.355,37.1L98.318,36.867L99.282,37.829L100.245,38.483L101.209,39.345L102.172,40.256L103.136,41.464L104.099,42.109L105.063,43.092L106.026,44.011L106.99,45.549L107.953,47.185L108.917,48.958L109.88,49.957L110.844,51.107L111.807,52.091L112.771,52.513L113.734,54.959L114.698,57.141L115.662,58.799L116.625,60.144L117.589,60.966L118.552,61.986L119.516,62.318L120.479,64.647L121.443,66.87L122.406,67.894L123.37,69.372L124.333,70.507L125.297,71.287L126.26,72.034L127.224,73.661L128.187,75.44L129.151,77.061L130.114,78.99L131.078,80.794L132.041,80.943L133.005,81.879L133.968,83.413L134.932,84.906L135.895,86.693L136.859,87.589L137.822,88.724L138.786,88.857L139.749,89.563L140.713,90.591L141.676,91.8L142.64,93.952L143.603,95.3L144.567,96.622L145.53,96.883L146.494,97.481L147.457,99.309L148.421,100.707L149.384,101.456L150.308,101.948L151.271,102.489L152.235,102.941L153.198,103.278L154.162,103.85L155.125,104.939L156.089,105.411L157.052,105.772L158.016,107.444L158.979,108.234L159.943,108.485L160.906,109.772L161.87,109.981L162.833,110.821L163.797,111.078L164.76,111.557L165.724,111.593L166.687,111.719L167.651,112.735L168.615,113.475L169.578,113.033L170.542,112.945L171.505,113.163L172.469,113.284L173.432,113.953L174.396,115.556L175.359,115.753L176.323,116.832L177.286,118.298L178.25,118.636L179.213,118.636L180.177,118.896L181.14,120.055L182.104,121.077L183.067,121.194L184.031,121.369L184.994,121.447L185.958,121.736L186.921,121.413L187.885,121.843L188.848,117.8L189.812,119.006L190.775,120.041L191.739,120.105L192.702,120.403L193.666,119.615L194.629,119.848L195.593,119.76L196.556,119.417L197.52,120.022L198.483,119.825L199.447,120.242L200.41,120.263L201.374,121.255L202.337,121.807L203.301,122.264L204.264,122.343L205.228,122.746L206.191,122.667L207.155,122.588L208.118,123.55L209.082,128.471L210.045,128.575L211.009,128.394L211.973,128.5L212.936,127.964L213.9,128.324L214.863,128.666L215.827,129.311L216.79,129.742L217.754,128.754L218.717,128.904L219.681,129.306L220.644,129.203L221.608,128.78L222.571,128.992L223.535,128.917L224.498,129.328L225.462,129.841L226.425,129.783L227.389,130.174L228.352,129.826L229.316,130.786L230.279,131.556L231.243,132.26L232.206,132.403L233.17,132.949L234.133,132.747L235.097,133.129L236.06,133.35L237.024,133.629L237.987,134.238L238.951,134.391L239.914,134.6L240.878,134.928L241.841,134.626L242.805,133.871L243.768,133.626L244.732,133.801L245.695,133.923L246.659,134.581L247.622,135.004L248.586,135.479L249.549,135.232L250.513,134.52L251.476,134.37L252.44,134.231L253.404,133.927L254.367,134.359L255.331,134.297L256.294,133.679L257.258,134.202L258.221,134.73L259.185,135.317L260.148,135.052L261.112,135.502L262.075,135.604L263.039,136.23L264.002,136.871L264.966,137.582L265.929,137.771L266.893,137.632L267.856,137.6L268.82,136.933L269.783,137.353L270.747,138.375L271.71,137.634L272.674,138.658L273.637,139.651L274.601,138.843L275.564,138.33L276.528,139.252L277.491,139.23L278.455,139.225L279.418,138.696L280.382,138.834L281.345,138.885L282.309,139.606L283.272,139.507L284.236,140.135L285.199,139.942L286.163,140.078L287.126,139.42L288.09,139.285L289.053,140.348L290.017,140.634L290.98,140.329L291.944,141.287L292.907,140.45L293.871,139.921L294.835,140.261L295.798,141.195L296.762,140.919L297.725,141.305L298.689,141.24L299.652,141.167L300.616,140.096L301.579,139.981L302.543,139.574L303.506,139.903L304.47,139.786L305.433,139.634L306.397,139.961L307.36,140.469L308.324,140.568L309.287,140.354L310.251,140.964L311.214,140.768L312.178,141.251L313.141,142.116L314.105,142.366L315.068,143.02L316.032,142.185L316.995,142.982L317.959,143.414L318.922,143.087L319.886,143.677L320.849,144.394L321.813,144.456L322.776,144.527L323.74,144.665L324.703,145.048L325.667,145.913L326.63,145.809L327.594,146.311L328.557,146.607L329.521,147.012L330.484,145.557L331.448,145.769L332.411,144.964L333.375,144.615L334.338,144.571L335.302,144.744L336.266,144.19L337.229,143.844L338.193,142.878L339.156,144.079L340.12,144.236L341.083,144.236L342.047,143.579L343.01,143.199L343.974,143.019L344.937,142.535L345.901,142.448L346.864,142.1L347.828,141.772L348.791,141.51L349.755,140.909L350.718,142.458L351.682,142.851L352.645,143.555L353.609,143.258L354.572,143.112L355.536,142.986L356.499,143.966L357.463,143.443L358.426,143.565L359.39,143.36L360.353,142.488L361.317,142.629L362.28,143.006L363.244,144.178L364.207,144.463L365.171,144.714L366.134,143.547L367.098,143.815L368.061,144.068L369.025,144.357L369.988,144.473L370.952,143.915L371.915,143.502L372.879,143.484L373.842,143.776L374.806,144.086L375.769,143.931L376.733,144.257L377.696,145.148L378.66,145.332L379.664,145.191L380.627,145.684L381.591,145.301L382.554,145.198L383.518,145.32L384.481,144.469L385.445,144.429L386.408,144.379L387.372,144.561L388.335,144.576L389.299,144.606L390.262,144.986L391.226,144.967L392.189,144.526L393.153,144.199L394.116,143.833L395.08,143.959L396.043,144.327L397.007,144.15L397.97,144L398.934,143.316L399.897,143.919L400.861,144.242L401.824,144.61L402.788,144.371L403.751,143.987L404.715,144.768L405.678,144.959L406.642,145.065L407.605,144.988L408.569,144.731L409.533,144.872L410.496,144.961L411.46,144.822L412.423,144.677L413.387,144.992L414.35,145.119L415.314,144.705L416.277,144.174L417.241,143.635L418.204,143.679L419.168,144.144L420.131,143.103L421.095,142.565L422.058,142.345L423.022,142.598L423.985,142.441L424.949,140.596L425.912,140.531L426.876,141.067L427.839,140.464L428.803,140.648L429.766,140L430.73,139.715L431.693,139.403L432.657,140.441L433.62,139.429L434.584,138.891L435.547,138.964L436.511,139.203L437.474,140.478L438.438,139.789L439.401,140.39L440.365,141.232L441.328,141.772L442.292,141.806L443.255,141.408L444.219,140.628L445.182,146.592L446.146,144.762L447.109,143.885L448.073,146.441L449.036,145.714L450,146.019L450,160L449.036,160L448.073,160L447.109,160L446.146,160L445.182,160L444.219,160L443.255,160L442.292,160L441.328,160L440.365,160L439.401,160L438.438,160L437.474,160L436.511,160L435.547,160L434.584,160L433.62,160L432.657,160L431.693,160L430.73,160L429.766,160L428.803,160L427.839,160L426.876,160L425.912,160L424.949,160L423.985,160L423.022,160L422.058,160L421.095,160L420.131,160L419.168,160L418.204,160L417.241,160L416.277,160L415.314,160L414.35,160L413.387,160L412.423,160L411.46,160L410.496,160L409.533,160L408.569,160L407.605,160L406.642,160L405.678,160L404.715,160L403.751,160L402.788,160L401.824,160L400.861,160L399.897,160L398.934,160L397.97,160L397.007,160L396.043,160L395.08,160L394.116,160L393.153,160L392.189,160L391.226,160L390.262,160L389.299,160L388.335,160L387.372,160L386.408,160L385.445,160L384.481,160L383.518,160L382.554,160L381.591,160L380.627,160L379.664,160L378.66,160L377.696,160L376.733,160L375.769,160L374.806,160L373.842,160L372.879,160L371.915,160L370.952,160L369.988,160L369.025,160L368.061,160L367.098,160L366.134,160L365.171,160L364.207,160L363.244,160L362.28,160L361.317,160L360.353,160L359.39,160L358.426,160L357.463,160L356.499,160L355.536,160L354.572,160L353.609,160L352.645,160L351.682,160L350.718,160L349.755,160L348.791,160L347.828,160L346.864,160L345.901,160L344.937,160L343.974,160L343.01,160L342.047,160L341.083,160L340.12,160L339.156,160L338.193,160L337.229,160L336.266,160L335.302,160L334.338,160L333.375,160L332.411,160L331.448,160L330.484,160L329.521,160L328.557,160L327.594,160L326.63,160L325.667,160L324.703,160L323.74,160L322.776,160L321.813,160L320.849,160L319.886,160L318.922,160L317.959,160L316.995,160L316.032,160L315.068,160L314.105,160L313.141,160L312.178,160L311.214,160L310.251,160L309.287,160L308.324,160L307.36,160L306.397,160L305.433,160L304.47,160L303.506,160L302.543,160L301.579,160L300.616,160L299.652,160L298.689,160L297.725,160L296.762,160L295.798,160L294.835,160L293.871,160L292.907,160L291.944,160L290.98,160L290.017,160L289.053,160L288.09,160L287.126,160L286.163,160L285.199,160L284.236,160L283.272,160L282.309,160L281.345,160L280.382,160L279.418,160L278.455,160L277.491,160L276.528,160L275.564,160L274.601,160L273.637,160L272.674,160L271.71,160L270.747,160L269.783,160L268.82,160L267.856,160L266.893,160L265.929,160L264.966,160L264.002,160L263.039,160L262.075,160L261.112,160L260.148,160L259.185,160L258.221,160L257.258,160L256.294,160L255.331,160L254.367,160L253.404,160L252.44,160L251.476,160L250.513,160L249.549,160L248.586,160L247.622,160L246.659,160L245.695,160L244.732,160L243.768,160L242.805,160L241.841,160L240.878,160L239.914,160L238.951,160L237.987,160L237.024,160L236.06,160L235.097,160L234.133,160L233.17,160L232.206,160L231.243,160L230.279,160L229.316,160L228.352,160L227.389,160L226.425,160L225.462,160L224.498,160L223.535,160L222.571,160L221.608,160L220.644,160L219.681,160L218.717,160L217.754,160L216.79,160L215.827,160L214.863,160L213.9,160L212.936,160L211.973,160L211.009,160L210.045,160L209.082,160L208.118,160L207.155,160L206.191,160L205.228,160L204.264,160L203.301,160L202.337,160L201.374,160L200.41,160L199.447,160L198.483,160L197.52,160L196.556,160L195.593,160L194.629,160L193.666,160L192.702,160L191.739,160L190.775,160L189.812,160L188.848,160L187.885,160L186.921,160L185.958,160L184.994,160L184.031,160L183.067,160L182.104,160L181.14,160L180.177,160L179.213,160L178.25,160L177.286,160L176.323,160L175.359,160L174.396,160L173.432,160L172.469,160L171.505,160L170.542,160L169.578,160L168.615,160L167.651,160L166.687,160L165.724,160L164.76,160L163.797,160L162.833,160L161.87,160L160.906,160L159.943,160L158.979,160L158.016,160L157.052,160L156.089,160L155.125,160L154.162,160L153.198,160L152.235,160L151.271,160L150.308,160L149.384,160L148.421,160L147.457,160L146.494,160L145.53,160L144.567,160L143.603,160L142.64,160L141.676,160L140.713,160L139.749,160L138.786,160L137.822,160L136.859,160L135.895,160L134.932,160L133.968,160L133.005,160L132.041,160L131.078,160L130.114,160L129.151,160L128.187,160L127.224,160L126.26,160L125.297,160L124.333,160L123.37,160L122.406,160L121.443,160L120.479,160L119.516,160L118.552,160L117.589,160L116.625,160L115.662,160L114.698,160L113.734,160L112.771,160L111.807,160L110.844,160L109.88,160L108.917,160L107.953,160L106.99,160L106.026,160L105.063,160L104.099,160L103.136,160L102.172,160L101.209,160L100.245,160L99.282,160L98.318,160L97.355,160L96.391,160L95.428,160L94.464,160L93.501,160L92.537,160L91.574,160L90.61,160L89.647,160L88.683,160L87.72,160L86.756,160L85.793,160L84.829,160L83.866,160L82.902,160L81.939,160L80.975,160L80.012,160L79.048,160L78.085,160L77.121,160L76.158,160L75.194,160L74.231,160L73.267,160L72.304,160L71.34,160L70.376,160L69.413,160L68.449,160L67.486,160L66.522,160L65.559,160L64.595,160L63.632,160L62.668,160L61.705,160L60.741,160L59.778,160L58.814,160L57.851,160L56.887,160L55.924,160L54.96,160L53.997,160L53.033,160L52.07,160L51.106,160L50.143,160L49.179,160L48.216,160L47.252,160L46.289,160L45.325,160L44.362,160L43.398,160L42.435,160L41.471,160L40.508,160L39.544,160L38.581,160L37.617,160L36.654,160L35.69,160L34.727,160L33.763,160L32.8,160L31.836,160L30.873,160L29.909,160L28.945,160L27.942,160L26.978,160L26.015,160L25.051,160L24.088,160L23.124,160L22.161,160L21.197,160L20.234,160L19.27,160L18.307,160L17.343,160L16.38,160L15.416,160L14.453,160L13.489,160L12.526,160L11.562,160L10.599,160L9.635,160L8.672,160L7.708,160L6.745,160L5.781,160L4.818,160L3.854,160L2.891,160L1.927,160L0.964,160L0,160Z" fill="#392F5A"/></g></g><path class="foreground" aria-hidden="true" d="" display="none"/></g></g></g><path class="foreground" aria-hidden="true" d="" display="none"/></g></g><g class="mark-group role-legend" role="graphics-symbol" aria-roledescription="legend" aria-label="Symbol legend for fill color with 2 values: library strain match, not library strain match"><g transform="translate(469,0)"><path class="background" aria-hidden="true" d="M0,0h205v41h-205Z" pointer-events="none"/><g><g class="mark-group role-legend-entry"><g transform="translate(0,0)"><path class="background" aria-hidden="true" d="M0,0h0v0h0Z" pointer-events="none"/><g><g class="mark-group role-scope" role="graphics-object" aria-roledescription="group mark container"><g transform="translate(0,0)"><path class="background" aria-hidden="true" d="M0,0h204.0654296875v18h-204.0654296875Z" pointer-events="none" opacity="1"/><g><g class="mark-symbol role-legend-symbol" pointer-events="none"><path transform="translate(9,9)" d="M7.906,0A7.906,7.906,0,1,1,-7.906,0A7.906,7.906,0,1,1,7.906,0" fill="#007EA7" stroke-width="1.5" opacity="1"/></g><g class="mark-text role-legend-label" pointer-events="none"><text text-anchor="start" transform="translate(22,14)" font-family="sans-serif" font-size="18px" fill="#000" opacity="1">library strain match</text></g></g><path class="foreground" aria-hidden="true" d="" pointer-events="none" display="none"/></g><g transform="translate(0,23)"><path class="background" aria-hidden="true" d="M0,0h204.0654296875v18h-204.0654296875Z" pointer-events="none" opacity="1"/><g><g class="mark-symbol role-legend-symbol" pointer-events="none"><path transform="translate(9,9)" d="M7.906,0A7.906,7.906,0,1,1,-7.906,0A7.906,7.906,0,1,1,7.906,0" fill="#392F5A" stroke-width="1.5" opacity="1"/></g><g class="mark-text role-legend-label" pointer-events="none"><text text-anchor="start" transform="translate(22,14)" font-family="sans-serif" font-size="18px" fill="#000" opacity="1">not library strain match</text></g></g><path class="foreground" aria-hidden="true" d="" pointer-events="none" display="none"/></g></g></g><path class="foreground" aria-hidden="true" d="" pointer-events="none" display="none"/></g></g></g><path class="foreground" aria-hidden="true" d="" pointer-events="none" display="none"/></g></g><g class="mark-group role-title"><g transform="translate(-67.00000000000001,-23)"><path class="background" aria-hidden="true" d="M0,0h0v0h0Z" pointer-events="none"/><g><g class="mark-text role-title-text" role="graphics-symbol" aria-roledescription="title" aria-label="Title text 'H1N1 strains within one HA1 mutation of library strain'" pointer-events="none"><text text-anchor="start" transform="translate(65,14)" font-family="sans-serif" font-size="18px" font-weight="bold" fill="#000" opacity="1">H1N1 strains within one HA1 mutation of library strain</text></g></g><path class="foreground" aria-hidden="true" d="" pointer-events="none" display="none"/></g></g></g><path class="foreground" aria-hidden="true" d="" display="none"/></g></g></g></svg>